<svg xmlns="http://www.w3.org/2000/svg" xmlns:xlink="http://www.w3.org/1999/xlink" width="16" height="16" viewBox="0 0 16 16">
  <defs>
    <clipPath id="clip-path">
      <rect id="Rectangle_660" data-name="Rectangle 660" width="16" height="16" fill="none"/>
    </clipPath>
  </defs>
  <g id="download" transform="translate(12 12)">
    <g id="Group_413" data-name="Group 413" transform="translate(-12 -12)" clip-path="url(#clip-path)">
      <path id="Path_248" data-name="Path 248" d="M13.4,16.067,11.333,18.2V10.333a.333.333,0,0,0-.667,0V18.2L8.6,16.067a.333.333,0,1,0-.467.467L10.8,19.2h.467l2.667-2.667a.333.333,0,0,0-.467-.467" transform="translate(-2.667 -3.333)" fill="#626262"/>
      <path id="Path_249" data-name="Path 249" d="M12.766,4.351A4.667,4.667,0,0,0,4.5,3.017a3.667,3.667,0,1,0,.133,7.333h2a.333.333,0,1,0,0-.667h-2a3,3,0,0,1,0-6h0L4.9,3.551a4,4,0,0,1,7.267,1.2.333.333,0,0,0,.333.267h.133a2.333,2.333,0,1,1,0,4.667h-2a.333.333,0,1,0,0,.667h2a3,3,0,1,0,.133-6" transform="translate(-0.3 -0.351)" fill="#626262"/>
    </g>
  </g>
</svg>
