<svg xmlns="http://www.w3.org/2000/svg" width="29.875" height="44.823" viewBox="0 0 29.875 44.823">
  <path id="Path_368" data-name="Path 368" d="M501.206,2071.214a14.627,14.627,0,0,0,1.934.392A16.856,16.856,0,0,1,501.206,2071.214Zm-10.967-4.868v20.338a14.939,14.939,0,0,0,14.938,14.938v-27.074A17.707,17.707,0,0,1,490.239,2066.347Zm27.867-2.064a14.887,14.887,0,0,0-12.929-7.483H490.239a14.927,14.927,0,0,0,14.938,14.948h2.8v14.667a14.918,14.918,0,0,0,10.127-22.132Z" transform="translate(-490.239 -2056.799)" fill="#818181"/>
</svg>
