<svg id="Component_19_1" data-name="Component 19 – 1" xmlns="http://www.w3.org/2000/svg" xmlns:xlink="http://www.w3.org/1999/xlink" width="30" height="32.31" viewBox="0 0 24 24.245">
  <defs>
    <clipPath id="clip-path">
      <rect id="Rectangle_669" data-name="Rectangle 669" width="24" height="24" fill="none"/>
    </clipPath>
    <clipPath id="clip-path-2">
      <rect id="Rectangle_624" data-name="Rectangle 624" width="13" height="15" transform="translate(-0.484 0)" fill="none"/>
    </clipPath>
  </defs>
  <g id="download" transform="translate(12 12)">
    <g id="download-2" data-name="download" transform="translate(-12 -12)" clip-path="url(#clip-path)">
      <path id="Path_279" data-name="Path 279" d="M18.7,6A7,7,0,0,0,6.3,4a5.5,5.5,0,0,0,.2,11c.752-.014.81-1,0-1a4.5,4.5,0,0,1,0-9h0l.4-.2A6,6,0,0,1,17.8,6.6a.5.5,0,0,0,.5.4h.2a3.5,3.5,0,1,1,0,7c-.859,0-.785.983,0,1a4.5,4.5,0,1,0,.2-9" fill="#707070" stroke="#707070" stroke-width="0.5"/>
    </g>
  </g>
  <g id="search" transform="translate(5.984 6.963)">
    <g id="Group_330" data-name="Group 330" transform="translate(-2.444 4.05) rotate(-30)" clip-path="url(#clip-path-2)">
      <path id="Path_145" data-name="Path 145" d="M13.417,12.969l-2.485-2.485h0a4.225,4.225,0,1,0-.348.348h0l2.485,2.485h.348a.249.249,0,0,0,0-.348M7.75,11.428A3.728,3.728,0,1,1,11.479,7.7,3.728,3.728,0,0,1,7.75,11.428" transform="translate(2.974 -4.914) rotate(30)" fill="#707070" stroke="#707070" stroke-width="0.7"/>
    </g>
  </g>
</svg>
