<svg xmlns="http://www.w3.org/2000/svg" xmlns:xlink="http://www.w3.org/1999/xlink" width="30" height="25.71" viewBox="0 0 24 24">
  <defs>
    <clipPath id="clip-path">
      <rect id="Rectangle_663" data-name="Rectangle 663" width="24" height="24" fill="none"/>
    </clipPath>
  </defs>
  <g id="generic-tile" transform="translate(12 12)">
    <g id="Group_419" data-name="Group 419" transform="translate(-12 -12)" clip-path="url(#clip-path)">
      <path id="Path_259" data-name="Path 259" d="M22.5,23H1.5a.5.5,0,0,1-.5-.5V1.5A.5.5,0,0,1,1.5,1h21a.5.5,0,0,1,.5.5v21a.5.5,0,0,1-.5.5M2,22H22V2H2Z" fill="#818181"/>
      <path id="Path_260" data-name="Path 260" d="M18.5,10h-6a.5.5,0,0,1-.5-.5v-4a.5.5,0,0,1,.5-.5h6a.5.5,0,0,1,.5.5v4a.5.5,0,0,1-.5.5M13,9h5V6H13Z" fill="#818181"/>
      <path id="Path_261" data-name="Path 261" d="M8.5,6h-3a.5.5,0,0,1,0-1h3a.5.5,0,0,1,0,1" fill="#818181"/>
      <path id="Path_262" data-name="Path 262" d="M8.5,10h-3a.5.5,0,0,1,0-1h3a.5.5,0,0,1,0,1" fill="#818181"/>
      <path id="Path_263" data-name="Path 263" d="M18.5,14H5.5a.5.5,0,0,1,0-1h13a.5.5,0,0,1,0,1" fill="#818181"/>
      <path id="Path_264" data-name="Path 264" d="M18.5,18H5.5a.5.5,0,0,1,0-1h13a.5.5,0,0,1,0,1" fill="#818181"/>
    </g>
  </g>
</svg>
