<svg id="bold" xmlns="http://www.w3.org/2000/svg" width="13.66" height="15.937" viewBox="0 0 13.66 15.937">
  <path id="Path_63" data-name="Path 63" d="M12.884,8.19A3.965,3.965,0,0,0,14.5,4.539,4.119,4.119,0,0,0,10.343,1H2V2.138l1.647.824A1.138,1.138,0,0,1,4.277,3.98v9.977a1.138,1.138,0,0,1-.629,1.018L2,15.8v1.138h8.905a4.69,4.69,0,0,0,4.738-4.148A4.555,4.555,0,0,0,12.884,8.19ZM7.692,3.277H8.83a2.277,2.277,0,0,1,0,4.553H7.692ZM9.969,14.66H7.692V10.107H9.969a2.277,2.277,0,0,1,0,4.553Z" transform="translate(-2 -1)" fill="#707070"/>
</svg>
