<svg xmlns="http://www.w3.org/2000/svg" width="18" height="24" viewBox="0 0 18 24">
  <g id="brochure-stack" transform="translate(-2)">
    <path id="Path_9358" data-name="Path 9358" d="M19.5,0H2.5A.5.5,0,0,0,2,.5v23a.5.5,0,0,0,.5.5h17a.5.5,0,0,0,.5-.5V.5a.5.5,0,0,0-.5-.5ZM19,23H3V1H19Z" fill="#626262"/>
    <path id="Path_9359" data-name="Path 9359" d="M15.281,8.974a2.316,2.316,0,1,0,2.281,2.316,2.316,2.316,0,0,0-2.281-2.316Zm0,3.632a1.316,1.316,0,1,1,1.281-1.316,1.3,1.3,0,0,1-1.281,1.316Z" fill="#626262"/>
    <path id="Path_9360" data-name="Path 9360" d="M6.5,21h7a.5.5,0,0,0,0-1H11.995c0-.009.005-.017.005-.026V18.158a.48.48,0,0,0-.021-.1h.6a.5.5,0,0,0,.485-.619l-1.188-4.842a.519.519,0,0,0-.971,0l-.594,2.421a.5.5,0,1,0,.971.238l.108-.441.55,2.243H10.2a.5.5,0,0,0,0,1h.821a.48.48,0,0,0-.021.1v1.816c0,.009,0,.017.005.026H8.995c0-.009.005-.017.005-.026V16.842h.575a.5.5,0,0,0,.493-.581L8.881,9a.5.5,0,0,0-.986,0L6.707,16.262a.5.5,0,0,0,.493.581H8v3.131c0,.009,0,.017.005.026H6.5a.5.5,0,0,0,0,1Zm1.888-8.822.6,3.665h-1.2Z" fill="#626262"/>
    <path id="Path_9361" data-name="Path 9361" d="M6.5,5h10a.5.5,0,0,0,0-1H6.5a.5.5,0,0,0,0,1Z" fill="#626262"/>
    <path id="Path_9362" data-name="Path 9362" d="M6.5,7h7a.5.5,0,0,0,0-1h-7a.5.5,0,0,0,0,1Z" fill="#626262"/>
  </g>
</svg>
