<svg id="Group_5295" data-name="Group 5295" xmlns="http://www.w3.org/2000/svg" width="24" height="24" viewBox="0 0 24 24">
  <rect id="Rectangle_1764" data-name="Rectangle 1764" width="24" height="24" fill="none"/>
  <g id="Group_5295-2" data-name="Group 5295">
    <path id="Path_8781" data-name="Path 8781" d="M21.377,6.059h-14a.5.5,0,0,1,0-1h14a.5.5,0,0,1,0,1Z" fill="#4f4f4f"/>
  </g>
  <g id="Group_5296" data-name="Group 5296">
    <path id="Path_8782" data-name="Path 8782" d="M21.377,12.559h-14a.5.5,0,1,1,0-1h14a.5.5,0,0,1,0,1Z" fill="#4f4f4f"/>
  </g>
  <g id="Group_5297" data-name="Group 5297">
    <path id="Path_8783" data-name="Path 8783" d="M21.377,19.059h-14a.5.5,0,0,1,0-1h14a.5.5,0,0,1,0,1Z" fill="#4f4f4f"/>
  </g>
  <g id="Group_5298" data-name="Group 5298">
    <path id="Path_8784" data-name="Path 8784" d="M3.377,7.059a1.5,1.5,0,1,1,1.5-1.5A1.5,1.5,0,0,1,3.377,7.059Zm0-2a.5.5,0,1,0,.5.5A.5.5,0,0,0,3.377,5.059Z" fill="#4f4f4f"/>
  </g>
  <g id="Group_5299" data-name="Group 5299">
    <path id="Path_8785" data-name="Path 8785" d="M3.377,13.559a1.5,1.5,0,1,1,1.5-1.5A1.5,1.5,0,0,1,3.377,13.559Zm0-2a.5.5,0,1,0,.5.5A.5.5,0,0,0,3.377,11.559Z" fill="#4f4f4f"/>
  </g>
  <g id="Group_5300" data-name="Group 5300">
    <path id="Path_8786" data-name="Path 8786" d="M3.377,20.059a1.5,1.5,0,1,1,1.5-1.5A1.5,1.5,0,0,1,3.377,20.059Zm0-2a.5.5,0,1,0,.5.5A.5.5,0,0,0,3.377,18.059Z" fill="#4f4f4f"/>
  </g>
</svg>
