<svg xmlns="http://www.w3.org/2000/svg" width="40.827" height="38.304" viewBox="0 0 40.827 38.304">
  <g id="Group_5600" data-name="Group 5600" transform="translate(-990 -259.292)">
    <g id="file-rtf" transform="translate(990 259.292)">
      <path id="Path_8910" data-name="Path 8910" d="M39.977,16.67H34.023V10.579a.729.729,0,0,0,0-.331.627.627,0,0,0-.187-.278l-8.506-8.7a.614.614,0,0,0-.34-.261.682.682,0,0,0-.323,0H7.655a.861.861,0,0,0-.851.87V16.67H.851A.861.861,0,0,0,0,17.54V31.462a.861.861,0,0,0,.851.87H6.8v6.091a.86.86,0,0,0,.851.87H33.172a.86.86,0,0,0,.851-.87V32.332h5.954a.86.86,0,0,0,.851-.87V17.54A.86.86,0,0,0,39.977,16.67ZM25.517,3.984l5.6,5.725h-5.6ZM8.506,2.748h15.31v7.831a.861.861,0,0,0,.851.87h7.655V16.67H8.506Zm23.816,34.8H8.506V32.332H32.321Zm6.8-6.961H1.7V18.41H39.126Z" transform="translate(0 -0.989)" fill="#707070"/>
    </g>
    <text id="MEPSA" transform="translate(996.413 286.444)" fill="#707070" font-size="9" font-family="JWKnoll-Bold, JW Knoll" font-weight="700"><tspan x="0" y="0">MEPSA</tspan></text>
  </g>
</svg>
