<svg id="Group_5664" data-name="Group 5664" xmlns="http://www.w3.org/2000/svg" width="16" height="15.011" viewBox="0 0 16 15.011">
  <g id="file-rtf">
    <path id="Path_8910" data-name="Path 8910" d="M15.667,7.134H13.333V4.747a.286.286,0,0,0,0-.13.246.246,0,0,0-.073-.109L9.927,1.1A.241.241,0,0,0,9.793,1a.267.267,0,0,0-.127,0H3a.337.337,0,0,0-.333.341v5.8H.333A.337.337,0,0,0,0,7.475v5.456a.337.337,0,0,0,.333.341H2.667v2.387A.337.337,0,0,0,3,16H13a.337.337,0,0,0,.333-.341V13.272h2.333A.337.337,0,0,0,16,12.931V7.475A.337.337,0,0,0,15.667,7.134ZM10,2.163l2.193,2.244H10ZM3.333,1.678h6V4.747a.337.337,0,0,0,.333.341h3V7.134H3.333Zm9.333,13.64H3.333V13.272h9.333Zm2.667-2.728H.667V7.816H15.333Z" transform="translate(0 -0.989)" fill="#707070"/>
  </g>
  <text id="MEPSA" transform="translate(2 10.513)" fill="#707070" font-size="4" font-family="JWKnoll-Bold, JW Knoll" font-weight="700"><tspan x="0" y="0">MEPSA</tspan></text>
</svg>
