<svg xmlns="http://www.w3.org/2000/svg" width="30" height="42.37" viewBox="0 0 18.26 25.791">
  <path id="Path_179" data-name="Path 179" d="M1459.513-974.734a12.356,12.356,0,0,0-7.986-2.768,12.343,12.343,0,0,0-7.991,2.768,9.538,9.538,0,0,0-1.141,1.131l1.172,11.046.153,1.428a18.59,18.59,0,0,1,3.172,2.834c.184.2.363.414.542.629.348.419.67.844.972,1.274a17.108,17.108,0,0,1,2.354,4.682v-13.271a3.249,3.249,0,0,1-2.5-3.162,3.263,3.263,0,0,1,3.264-3.264,3.265,3.265,0,0,1,3.259,3.264,3.255,3.255,0,0,1-2.491,3.162v13.24a17.067,17.067,0,0,1,2.348-4.651q.453-.645.967-1.274c.179-.22.363-.425.547-.635a18.754,18.754,0,0,1,3.167-2.829l.154-1.428,1.177-11.041A9.637,9.637,0,0,0,1459.513-974.734Z" transform="translate(-1442.395 977.502)" fill="#818181"/>
</svg>
