<svg xmlns="http://www.w3.org/2000/svg" width="30" height="41.947" viewBox="0 0 30 41.947">
  <path id="Path_252" data-name="Path 252" d="M340.871,811.635c-1.862.435-4.051.976-6.235,1.705a7.208,7.208,0,0,0-2.537-4.858c-2.594-1.9-6.416.594-8.512,2.221a23.367,23.367,0,0,0-6.99,9.251,74.715,74.715,0,0,1,1.989-15.032c.75-2.9-4.216-2.6-4.847-.162a87.291,87.291,0,0,0-2.2,18.561c-.233,6.516-.551,13.992,1.559,20.3.833,2.492,5.557.555,4.712-1.97-.055-.165-.1-.334-.152-.5a.964.964,0,0,0,.1-.408c-.208-8.464.337-18.053,4.988-25.38,1.258-1.983,3.7-6.049,5.876-3.1a7.937,7.937,0,0,1,1.29,3.054,13.289,13.289,0,0,0-5.165,4.455c-1.725,2.77.181,6.84,3.7,6.194a5.061,5.061,0,0,0,1.525-.54l.069-.01a4.786,4.786,0,0,0,2.879-2.138,16.048,16.048,0,0,0,1.858-8.457,45.591,45.591,0,0,1,4.7-1.391C340.209,813.264,342.331,811.294,340.871,811.635Zm-13.883,10.749c-1.335-2.559,1.069-4.418,3.152-5.556a14.083,14.083,0,0,1-1.343,7.335A4.434,4.434,0,0,1,326.988,822.384Z" transform="translate(-311.372 -802.836)" fill="#818181"/>
</svg>
