<svg id="image" xmlns="http://www.w3.org/2000/svg" width="15.602" height="12.765" viewBox="0 0 15.602 12.765">
  <path id="Path_8929" data-name="Path 8929" d="M16.127,10.255A2.127,2.127,0,1,0,14,8.127a2.127,2.127,0,0,0,2.127,2.127Zm0-3.546a1.418,1.418,0,1,1-1.418,1.418A1.418,1.418,0,0,1,16.127,6.709Z" transform="translate(-4.781 -3.873)" fill="#707070"/>
  <path id="Path_8930" data-name="Path 8930" d="M16.247,3H1.355A.355.355,0,0,0,1,3.355V15.41a.355.355,0,0,0,.355.355H16.247a.355.355,0,0,0,.355-.355V3.355A.355.355,0,0,0,16.247,3Zm-.355.709v8.716L13.659,10.2a.34.34,0,0,0-.5,0L11.283,12.07,6.921,7.716a.34.34,0,0,0-.5,0L1.709,12.425V3.709ZM1.709,15.056V13.432L6.673,8.468l4.361,4.354a.34.34,0,0,0,.5,0L13.41,10.95l2.482,2.482v1.624Z" transform="translate(-1 -3)" fill="#707070"/>
</svg>
