<svg xmlns="http://www.w3.org/2000/svg" width="16.992" height="24" viewBox="0 0 16.992 24">
  <path id="Path_8988" data-name="Path 8988" d="M1458.325-974.926a11.5,11.5,0,0,0-7.432-2.576,11.485,11.485,0,0,0-7.436,2.576,8.86,8.86,0,0,0-1.062,1.052l1.09,10.279.143,1.328a17.31,17.31,0,0,1,2.952,2.638c.171.19.338.386.5.586.324.39.623.785.9,1.185a15.924,15.924,0,0,1,2.19,4.357v-12.35a3.023,3.023,0,0,1-2.323-2.943,3.036,3.036,0,0,1,3.037-3.037,3.039,3.039,0,0,1,3.033,3.037,3.029,3.029,0,0,1-2.318,2.943v12.321a15.874,15.874,0,0,1,2.185-4.328q.42-.6.9-1.185c.167-.205.338-.4.51-.591a17.417,17.417,0,0,1,2.947-2.633l.142-1.328,1.1-10.274A8.922,8.922,0,0,0,1458.325-974.926Z" transform="translate(-1442.395 977.502)" fill="#818181"/>
</svg>
