<svg id="Group_5294" data-name="Group 5294" xmlns="http://www.w3.org/2000/svg" width="24" height="24" viewBox="0 0 24 24">
  <g id="Group_5283" data-name="Group 5283" transform="translate(0 24)">
    <path id="Path_8771" data-name="Path 8771" d="M0,24" transform="translate(0 -24)"/>
  </g>
  <g id="Group_5284" data-name="Group 5284" transform="translate(24 24)">
    <path id="Path_8772" data-name="Path 8772" d="M24,24" transform="translate(-24 -24)"/>
  </g>
  <g id="Group_5285" data-name="Group 5285" transform="translate(24)">
    <path id="Path_8773" data-name="Path 8773" d="M24,0" transform="translate(-24)"/>
  </g>
  <g id="Group_5286" data-name="Group 5286">
    <path id="Path_8774" data-name="Path 8774" d="M0,0"/>
  </g>
  <g id="Group_5287" data-name="Group 5287" transform="translate(6 5)">
    <path id="Path_8775" data-name="Path 8775" d="M20.5,6H6.5a.5.5,0,0,1,0-1h14a.5.5,0,0,1,0,1Z" transform="translate(-6 -5)" fill="#4f4f4f"/>
  </g>
  <g id="Group_5288" data-name="Group 5288" transform="translate(6 11.5)">
    <path id="Path_8776" data-name="Path 8776" d="M20.5,12.5H6.5a.5.5,0,0,1,0-1h14a.5.5,0,0,1,0,1Z" transform="translate(-6 -11.5)" fill="#4f4f4f"/>
  </g>
  <g id="Group_5289" data-name="Group 5289" transform="translate(6 18)">
    <path id="Path_8777" data-name="Path 8777" d="M20.5,19H6.5a.5.5,0,0,1,0-1h14a.5.5,0,0,1,0,1Z" transform="translate(-6 -18)" fill="#4f4f4f"/>
  </g>
  <g id="Group_5290" data-name="Group 5290" transform="translate(1.979 3.952)">
    <path id="Path_8778" data-name="Path 8778" d="M1.979,7.5v-.61h.63V4.771a1.113,1.113,0,0,1-.24.2A1.211,1.211,0,0,1,2,5.117V4.4a1.32,1.32,0,0,0,.266-.069,1.264,1.264,0,0,0,.2-.1A1.026,1.026,0,0,0,2.637,4.1c.049-.046.1-.1.142-.145h.545v2.94h.561V7.5Z" transform="translate(-1.979 -3.952)" fill="#4f4f4f"/>
  </g>
  <g id="Group_5291" data-name="Group 5291" transform="translate(1.752 9.917)">
    <path id="Path_8779" data-name="Path 8779" d="M1.752,13.5v-.59l1.029-1.07a3.132,3.132,0,0,0,.378-.45.7.7,0,0,0,.127-.385.4.4,0,0,0-.119-.313.438.438,0,0,0-.3-.107.532.532,0,0,0-.327.107,1.87,1.87,0,0,0-.312.323l-.47-.45a1.713,1.713,0,0,1,.507-.485,1.263,1.263,0,0,1,.658-.165,1.335,1.335,0,0,1,.442.07.987.987,0,0,1,.35.2.9.9,0,0,1,.227.328,1.113,1.113,0,0,1,.08.437,1.085,1.085,0,0,1-.052.34,1.373,1.373,0,0,1-.15.312,2.647,2.647,0,0,1-.235.311c-.092.1-.194.214-.308.327l-.585.6H4.026V13.5Z" transform="translate(-1.752 -9.917)" fill="#4f4f4f"/>
  </g>
  <g id="Group_5292" data-name="Group 5292" transform="translate(1.662 15.917)">
    <path id="Path_8780" data-name="Path 8780" d="M1.832,18.687a3.068,3.068,0,0,0,.375.142,1.463,1.463,0,0,0,.44.067,1.237,1.237,0,0,0,.215-.019.971.971,0,0,0,.226-.067.533.533,0,0,0,.177-.133.322.322,0,0,0,.073-.215.386.386,0,0,0-.223-.36,1.177,1.177,0,0,0-.567-.12h-.29v-.59h.279a1.867,1.867,0,0,0,.283-.02.991.991,0,0,0,.242-.065.443.443,0,0,0,.17-.122.3.3,0,0,0,.066-.2.3.3,0,0,0-.063-.192.455.455,0,0,0-.158-.125.733.733,0,0,0-.215-.068,1.437,1.437,0,0,0-.615.03,2.017,2.017,0,0,0-.329.125l-.181-.65a2.636,2.636,0,0,1,.406-.128,2.5,2.5,0,0,1,.585-.062,1.943,1.943,0,0,1,.522.065,1.158,1.158,0,0,1,.407.195.884.884,0,0,1,.263.32,1.006,1.006,0,0,1,.093.44.969.969,0,0,1-.038.283.756.756,0,0,1-.1.212.707.707,0,0,1-.14.152.685.685,0,0,1-.158.1.774.774,0,0,1,.183.11.742.742,0,0,1,.155.173.859.859,0,0,1,.107.239,1.13,1.13,0,0,1,.04.317.971.971,0,0,1-.107.468.957.957,0,0,1-.287.325,1.247,1.247,0,0,1-.413.188,1.925,1.925,0,0,1-.483.06,2.894,2.894,0,0,1-.309-.017c-.1-.012-.2-.028-.3-.048s-.187-.043-.274-.07a1.777,1.777,0,0,1-.226-.085Z" transform="translate(-1.662 -15.917)" fill="#4f4f4f"/>
  </g>
  <g id="Group_5293" data-name="Group 5293">
    <rect id="Rectangle_1763" data-name="Rectangle 1763" width="24" height="24" fill="none"/>
  </g>
</svg>
