<svg id="Group_5282" data-name="Group 5282" xmlns="http://www.w3.org/2000/svg" width="16" height="16" viewBox="0 0 16 16">
  <g id="Group_5280" data-name="Group 5280">
    <rect id="Rectangle_1762" data-name="Rectangle 1762" width="16" height="16" fill="none"/>
  </g>
  <g id="Group_5281" data-name="Group 5281" transform="translate(1.631 0.672)">
    <path id="Path_8770" data-name="Path 8770" d="M11.958,15.5a.326.326,0,0,1-.326-.326V1.152H8.37V15.175a.326.326,0,1,1-.652,0v-6.2H6.74A4.24,4.24,0,0,1,6.74.5h7.827a.326.326,0,0,1,0,.652H12.284V15.175A.326.326,0,0,1,11.958,15.5ZM6.74,1.152a3.587,3.587,0,1,0,0,7.175h.978V1.152Z" transform="translate(-2.5 -0.5)" fill="#4f4f4f"/>
  </g>
</svg>
